<svg xmlns="http://www.w3.org/2000/svg" viewBox="0 0 202.2 202.2"><rect width="202.2" height="202.2" rx="44.5" fill="#4A1517"/><path transform="translate(38.8 58.1)" fill="#FDE2DD" d="M11.1 90.8C5.3 90.8 0.6 90.7 0.6 90.7C0.5 90.7 0.4 90.5 0.3 90.4C-0.1 90 -0.1 87.5 0.5 65C1.1 43.4 1.2 40.2 1.8 37C2.4 33.2 3.5 29.1 4.7 25.9C5.4 24.2 7.4 20.2 8.5 18.5C9.8 16.5 12 13.6 13.7 11.9C16 9.7 17.4 8.5 20.5 6.4C24.1 3.9 27.1 2.6 30.9 1.6C42.4 -1.4 52.6 -0.1 60.8 5.4C61.7 6 63.2 7.2 64.1 8C65.2 9 65.8 9.5 66.1 9.5C66.3 9.5 67 9 68.1 8.2C74.1 3.2 78.6 1.3 86.2 0.5C88.4 0.3 91.2 0.4 94.2 0.8C103.6 2.2 111.2 7.3 117.3 16.2C120.6 21.1 122.5 26.1 123.8 33.6C124.5 37.6 124.7 40 124.6 42.8C124.5 44.2 124.4 50.5 124.3 57C124 78.4 123.8 89.2 123.7 89.8C123.7 90.1 123.5 90.4 123.3 90.6C123 90.9 122.4 90.9 111.5 90.9C104.7 90.8 100 90.7 99.8 90.6C99.6 90.6 99.5 90.3 99.4 90.1C99.3 89.8 99.5 78.2 99.7 64.2C99.9 44.2 100 38.6 99.8 37.6C98.9 31.6 94.9 27.1 89.7 26.3C88.2 26.1 85.7 26.2 84.4 26.6C81.2 27.4 78.1 30.4 76.9 33.8C76.1 35.9 76 36.7 75.8 42.8C75.6 52.2 75.3 65.9 75.2 78.3C75.1 86.9 75 89.9 74.8 90.2C74.7 90.4 74.4 90.7 74.2 90.8C73.9 90.9 68.7 90.9 62.6 90.8L51.5 90.8L51.1 90.3C50.8 89.9 50.8 89.8 50.9 82.5C51 73.7 51.3 62.8 51.5 52.3C51.6 48.2 51.7 42.8 51.7 40.5C51.7 36.3 51.7 36.2 51.3 34.8C49.9 30.5 47.5 27.9 43.7 26.6C42.9 26.3 42.3 26.3 40.2 26.3C37.8 26.3 37.5 26.3 36.2 26.7C33.4 27.7 30.8 29.7 29 32.3C27.4 34.8 26.7 37 26.5 41.1C26.3 44.1 25.9 59.7 25.5 79.9C25.3 89.2 25.3 90 24.8 90.5C24.5 91 25.9 91 11.1 90.8Z"/></svg>